<?xml version="1.0" encoding="UTF-8"?><svg id="Layer_1" xmlns="http://www.w3.org/2000/svg" viewBox="0 0 3879.2 1669.66"><defs><style>.cls-1{letter-spacing:0em;}.cls-2{letter-spacing:0em;}.cls-3{letter-spacing:-.02em;}.cls-4{stroke-width:0px;}.cls-4,.cls-5,.cls-6{fill:#16254c;}.cls-7{letter-spacing:0em;}.cls-8{letter-spacing:0em;}.cls-9{letter-spacing:0em;}.cls-10{letter-spacing:0em;}.cls-11{letter-spacing:0em;}.cls-12{letter-spacing:-.01em;}.cls-5{font-family:TitilliumWeb-SemiBold, 'Titillium Web';font-size:539.02px;font-weight:600;letter-spacing:.02em;opacity:.95;}.cls-6{font-family:TitilliumWeb-Regular, 'Titillium Web';font-size:123px;}</style></defs><path class="cls-4" d="M324.08,834.83c0,220.31,178.58,398.88,398.88,398.88,176.79,0,326.82-115.03,378.98-274.39l343.98,113.1v179.81l-722.96,417.41L0,1252.24V417.41L722.96,0l722.96,417.41v179.81l-344.12,112.97c-52.16-159.22-202.05-274.25-378.84-274.25-220.31,0-398.88,178.58-398.88,398.88Z"/><text class="cls-5" transform="translate(1526.65 951.3) scale(1.11 1)"><tspan x="0" y="0">CILINDIR</tspan></text><text class="cls-6" transform="translate(1603.15 1157.58) scale(1.26 1.1)"><tspan class="cls-12" x="0" y="0">F</tspan><tspan class="cls-7" x="63.1" y="0">r</tspan><tspan class="cls-10" x="105.41" y="0">om A</tspan><tspan class="cls-9" x="377.48" y="0">n</tspan><tspan class="cls-2" x="443.77" y="0">y Pla</tspan><tspan class="cls-9" x="698.13" y="0">c</tspan><tspan class="cls-10" x="752" y="0">e to </tspan><tspan class="cls-8" x="981.26" y="0">E</tspan><tspan class="cls-1" x="1048.91" y="0">v</tspan><tspan class="cls-10" x="1107.95" y="0">ery </tspan><tspan class="cls-3" x="1303.02" y="0">F</tspan><tspan class="cls-2" x="1364.64" y="0">a</tspan><tspan class="cls-9" x="1427.25" y="0">c</tspan><tspan class="cls-11" x="1481.12" y="0">e</tspan></text></svg>