<?xml version="1.0" encoding="UTF-8"?><svg id="Layer_1" xmlns="http://www.w3.org/2000/svg" viewBox="0 0 2418.43 3194.01"><defs><style>.cls-1{fill:#16254c;}.cls-1,.cls-2,.cls-3{stroke-width:0px;}.cls-2{fill:#aaa;}.cls-3{fill:#5e605f;}</style></defs><path class="cls-2" d="M542.05,2034.68c0,305.94,298.69,553.93,667.17,553.93,295.7,0,546.64-159.74,633.88-381.04l575.34,157.07v249.71l-1209.22,579.66L0,2614.34v-1159.32l1209.22-579.66,1209.22,579.66v249.71l-575.57,156.88c-87.24-221.11-337.95-380.85-633.65-380.85-368.48,0-667.17,247.99-667.17,553.93Z"/><path class="cls-3" d="M542.05,1597c0,305.94,298.69,553.93,667.17,553.93,295.7,0,546.64-159.74,633.88-381.04l575.34,157.07v249.71l-1209.22,579.66L0,2176.66V1017.34L1209.22,437.68l1209.22,579.66v249.71l-575.57,156.88c-87.24-221.11-337.95-380.85-633.65-380.85-368.48,0-667.17,247.99-667.17,553.93Z"/><path class="cls-1" d="M542.05,1159.32c0,305.94,298.69,553.93,667.17,553.93,295.7,0,546.64-159.74,633.88-381.04l575.34,157.07v249.71l-1209.22,579.66L0,1738.98V579.66L1209.22,0l1209.22,579.66v249.71l-575.57,156.88c-87.24-221.11-337.95-380.85-633.65-380.85-368.48,0-667.17,247.99-667.17,553.93Z"/></svg>