<?xml version="1.0" encoding="UTF-8"?><svg id="Layer_1" xmlns="http://www.w3.org/2000/svg" viewBox="0 0 14144.07 2570.99"><defs><style>.cls-1{fill:#aaa;}.cls-1,.cls-2,.cls-3,.cls-4{stroke-width:0px;}.cls-2{fill:#5e605f;}.cls-3,.cls-4{fill:#eff0f2;}.cls-4{opacity:.95;}</style></defs><path class="cls-3" d="M436.32,1637.81c0,246.26,240.43,445.88,537.03,445.88,238.02,0,440.01-128.58,510.24-306.72l463.11,126.43v201l-973.35,466.59L0,2104.4v-933.19l973.35-466.59,973.35,466.59v201l-463.3,126.28c-70.22-177.98-272.03-306.56-510.05-306.56-296.61,0-537.03,199.62-537.03,445.88Z"/><path class="cls-1" d="M436.32,1285.5c0,246.26,240.43,445.88,537.03,445.88,238.02,0,440.01-128.58,510.24-306.72l463.11,126.43v201l-973.35,466.59L0,1752.09v-933.19l973.35-466.59,973.35,466.59v201l-463.3,126.28c-70.22-177.98-272.03-306.56-510.05-306.56-296.61,0-537.03,199.62-537.03,445.88Z"/><path class="cls-2" d="M436.32,933.19c0,246.26,240.43,445.88,537.03,445.88,238.02,0,440.01-128.58,510.24-306.72l463.11,126.43v201l-973.35,466.59L0,1399.78V466.59L973.35,0l973.35,466.59v201l-463.3,126.28c-70.22-177.98-272.03-306.56-510.05-306.56-296.61,0-537.03,199.62-537.03,445.88Z"/><path class="cls-4" d="M3025.01,2275.44c-310.95,0-521.9-77.45-632.78-232.42-110.91-154.94-166.35-409.78-166.35-764.49s55.94-607.22,167.9-757.53c111.92-150.28,322.33-225.43,631.23-225.43,184.48,0,387.6,23.36,609.42,70.02l-12.42,252.04c-186.57-29.88-373.15-44.84-559.72-44.84s-313.01,49.97-379.32,149.84c-66.34,99.87-99.5,287.52-99.5,562.89s32.11,463.02,96.39,562.89c64.25,99.87,189.64,149.81,376.22,149.81s375.2-13.98,565.93-42l9.32,257.64c-213.52,41.06-415.62,61.58-606.31,61.58Z"/><path class="cls-4" d="M4072.32,2244.64V326.35h345.12v1918.29h-345.12Z"/><path class="cls-4" d="M6173.97,2244.64h-1193.98V326.35h345.12v1641.07h848.86v277.23Z"/><path class="cls-4" d="M6527.96,2244.64V326.35h345.12v1918.29h-345.12Z"/><path class="cls-4" d="M7435.63,2244.64V326.35h603.2l646.76,1643.84h46.66V326.35h345.12v1918.29h-590.78l-662.29-1646.64h-43.55v1646.64h-345.12Z"/><path class="cls-4" d="M10376.39,2244.64h-736.9V326.35h736.9c327.53,0,551.41,74.68,671.64,224.05,120.23,149.37,180.36,383.65,180.36,702.91,0,162.43-11.95,300.12-35.79,413.05-23.84,112.97-65.8,215.17-125.9,306.63-118.17,181.1-348.3,271.65-690.31,271.65ZM10870.81,1253.3c0-231.48-32.14-398.57-96.39-501.27-64.28-102.67-196.94-154.03-398.03-154.03h-391.78v1372.18h391.78c205.21,0,342.05-68.13,410.45-204.4,33.15-69.08,55.44-142.82,66.85-221.25,11.41-78.4,17.12-175.5,17.12-291.24Z"/><path class="cls-4" d="M11703.48,2244.64V326.35h345.12v1918.29h-345.12Z"/><path class="cls-4" d="M12956.26,1561.36v683.29h-345.12V326.35h808.45c480.92,0,721.37,203.52,721.37,610.5,0,272.6-116.11,457.42-348.26,554.48l351.37,753.31h-379.36l-307.81-683.29h-500.63ZM13786.49,939.65c0-229.62-122.32-344.45-366.9-344.45h-463.33v697.3h469.54c124.35,0,215.54-32.18,273.61-96.6,58.04-64.42,87.07-149.84,87.07-256.26Z"/></svg>