<?xml version="1.0" encoding="UTF-8"?><svg id="Layer_1" xmlns="http://www.w3.org/2000/svg" viewBox="0 0 2455.57 3239.51"><defs><style>.cls-1{font-family:TitilliumWeb-SemiBold, 'Titillium Web';font-size:447.71px;font-weight:600;letter-spacing:.02em;opacity:.95;}.cls-1,.cls-2,.cls-3{fill:#16254c;}.cls-4{letter-spacing:0em;}.cls-5{letter-spacing:-.01em;}.cls-2,.cls-6,.cls-7{stroke-width:0px;}.cls-8{letter-spacing:0em;}.cls-6{fill:#aaa;}.cls-9{letter-spacing:0em;}.cls-10{letter-spacing:0em;}.cls-11{letter-spacing:0em;}.cls-12{letter-spacing:-.02em;}.cls-3{font-family:TitilliumWeb-Regular, 'Titillium Web';font-size:155.33px;}.cls-7{fill:#5e605f;}.cls-13{letter-spacing:0em;}.cls-14{letter-spacing:0em;}.cls-15{letter-spacing:0em;}</style></defs><path class="cls-6" d="M724.05,1536.24c0,230.99,225.52,418.23,503.73,418.23,223.26,0,412.73-120.6,478.6-287.7l434.39,118.59v188.53l-912.99,437.66-912.99-437.66v-875.32l912.99-437.66,912.99,437.66v188.53l-434.57,118.45c-65.87-166.95-255.16-287.55-478.42-287.55-278.21,0-503.73,187.24-503.73,418.23Z"/><path class="cls-7" d="M724.05,1205.78c0,230.99,225.52,418.23,503.73,418.23,223.26,0,412.73-120.6,478.6-287.7l434.39,118.59v188.53l-912.99,437.66-912.99-437.66v-875.32l912.99-437.66,912.99,437.66v188.53l-434.57,118.45c-65.87-166.95-255.16-287.55-478.42-287.55-278.21,0-503.73,187.24-503.73,418.23Z"/><path class="cls-2" d="M724.05,875.32c0,230.99,225.52,418.23,503.73,418.23,223.26,0,412.73-120.6,478.6-287.7l434.39,118.59v188.53l-912.99,437.66-912.99-437.66V437.66L1227.78,0l912.99,437.66v188.53l-434.57,118.45c-65.87-166.95-255.16-287.55-478.42-287.55-278.21,0-503.73,187.24-503.73,418.23Z"/><text class="cls-1" transform="translate(250.78 2940.89) scale(1.11 1)"><tspan x="0" y="0">CILINDIR</tspan></text><text class="cls-3" transform="translate(0 3190.81) scale(1.26 1.1)"><tspan class="cls-5" x="0" y="0">F</tspan><tspan class="cls-8" x="79.68" y="0">r</tspan><tspan class="cls-11" x="133.11" y="0">om A</tspan><tspan class="cls-4" x="476.7" y="0">n</tspan><tspan class="cls-9" x="560.42" y="0">y Pla</tspan><tspan class="cls-4" x="881.62" y="0">c</tspan><tspan class="cls-9" x="949.66" y="0">e to </tspan><tspan class="cls-14" x="1239.18" y="0">E</tspan><tspan class="cls-15" x="1324.61" y="0">v</tspan><tspan class="cls-9" x="1399.17" y="0">ery </tspan><tspan class="cls-12" x="1645.51" y="0">F</tspan><tspan class="cls-9" x="1723.33" y="0">a</tspan><tspan class="cls-10" x="1802.39" y="0">c</tspan><tspan class="cls-13" x="1870.43" y="0">e</tspan></text></svg>